<svg id="Layer_1" data-name="Layer 1" xmlns="http://www.w3.org/2000/svg" xmlns:xlink="http://www.w3.org/1999/xlink" viewBox="0 0 273.44 685.44"><defs><style>.cls-1{fill:url(#linear-gradient);}</style><linearGradient id="linear-gradient" x1="-65.16" y1="572.55" x2="356.22" y2="151.17" gradientUnits="userSpaceOnUse"><stop offset="0" stop-color="#7efffb"/><stop offset="0.02" stop-color="#7efffb"/><stop offset="0.03" stop-color="#7ffffa"/><stop offset="0.05" stop-color="#7ffff9"/><stop offset="0.06" stop-color="#7ffff8"/><stop offset="0.08" stop-color="#80fff8"/><stop offset="0.09" stop-color="#80fff7"/><stop offset="0.11" stop-color="#81fff6"/><stop offset="0.13" stop-color="#81fff5"/><stop offset="0.14" stop-color="#82fff5"/><stop offset="0.16" stop-color="#82fff4"/><stop offset="0.17" stop-color="#82fff3"/><stop offset="0.19" stop-color="#83fff2"/><stop offset="0.2" stop-color="#83fff2"/><stop offset="0.22" stop-color="#84fff1"/><stop offset="0.23" stop-color="#84fff0"/><stop offset="0.25" stop-color="#85ffef"/><stop offset="0.27" stop-color="#85ffef"/><stop offset="0.28" stop-color="#85ffee"/><stop offset="0.3" stop-color="#86ffed"/><stop offset="0.31" stop-color="#86ffec"/><stop offset="0.33" stop-color="#87ffec"/><stop offset="0.34" stop-color="#87ffeb"/><stop offset="0.36" stop-color="#87ffea"/><stop offset="0.38" stop-color="#88ffe9"/><stop offset="0.39" stop-color="#88ffe9"/><stop offset="0.41" stop-color="#89ffe8"/><stop offset="0.42" stop-color="#89ffe7"/><stop offset="0.44" stop-color="#8affe6"/><stop offset="0.45" stop-color="#8affe6"/><stop offset="0.47" stop-color="#8affe5"/><stop offset="0.48" stop-color="#8bffe4"/><stop offset="0.5" stop-color="#8bffe3"/><stop offset="0.52" stop-color="#8cffe3"/><stop offset="0.53" stop-color="#8cffe2"/><stop offset="0.55" stop-color="#8dffe1"/><stop offset="0.56" stop-color="#8dffe0"/><stop offset="0.58" stop-color="#8dffe0"/><stop offset="0.59" stop-color="#8effdf"/><stop offset="0.61" stop-color="#8effde"/><stop offset="0.63" stop-color="#8fffdd"/><stop offset="0.64" stop-color="#8fffdd"/><stop offset="0.66" stop-color="#8fffdc"/><stop offset="0.67" stop-color="#90ffdb"/><stop offset="0.69" stop-color="#90ffda"/><stop offset="0.7" stop-color="#91ffda"/><stop offset="0.72" stop-color="#91ffd9"/><stop offset="0.73" stop-color="#92ffd8"/><stop offset="0.75" stop-color="#92ffd7"/><stop offset="0.77" stop-color="#92ffd7"/><stop offset="0.78" stop-color="#93ffd6"/><stop offset="0.8" stop-color="#93ffd5"/><stop offset="0.81" stop-color="#94ffd4"/><stop offset="0.83" stop-color="#94ffd4"/><stop offset="0.84" stop-color="#95ffd3"/><stop offset="0.86" stop-color="#95ffd2"/><stop offset="0.88" stop-color="#95ffd1"/><stop offset="0.89" stop-color="#96ffd1"/><stop offset="0.91" stop-color="#96ffd0"/><stop offset="0.92" stop-color="#97ffcf"/><stop offset="0.94" stop-color="#97ffce"/><stop offset="0.95" stop-color="#98ffce"/><stop offset="0.97" stop-color="#98ffcd"/><stop offset="0.98" stop-color="#98ffcc"/><stop offset="1" stop-color="#99ffcb"/></linearGradient></defs><path class="cls-1" d="M139.88,0A168.42,168.42,0,0,1,179,4.58,164,164,0,0,1,215.73,18.1,108.35,108.35,0,0,1,246.8,41.94a55.64,55.64,0,0,1,14.68,35.44v81.2q-2.3,22.86-25.14,24.77a26.68,26.68,0,0,1-18.5-7A22.88,22.88,0,0,1,210,158.58V89.21a28.78,28.78,0,0,0-9-19.65,65.24,65.24,0,0,0-18.29-12.37,101,101,0,0,0-21-6.86,106.05,106.05,0,0,0-43.84,0A100.74,100.74,0,0,0,97,57.19,65.38,65.38,0,0,0,78.69,69.56a28.66,28.66,0,0,0-8.93,19.65v69.37Q67.82,181.44,45,183.35a26.67,26.67,0,0,1-18.48-7,22.91,22.91,0,0,1-7.81-17.73V77.38A56.14,56.14,0,0,1,33.15,41.94,106.07,106.07,0,0,1,64,18.1,164.3,164.3,0,0,1,100.82,4.58,168.32,168.32,0,0,1,139.88,0ZM20,337.1a23.76,23.76,0,0,1,7.62-17.92,23.72,23.72,0,0,1,17.92-7.62h154a24.32,24.32,0,0,0,12-3.42,21.36,21.36,0,0,0,7-6.87,15.12,15.12,0,0,0,0-16,21.15,21.15,0,0,0-7-6.86,24.22,24.22,0,0,0-12-3.44H46.25a23.76,23.76,0,0,1-17.92-7.62,23.73,23.73,0,0,1-7.62-17.92,24.6,24.6,0,0,1,7.44-18.1,24.62,24.62,0,0,1,18.1-7.44H198a25.68,25.68,0,0,0,12-3.25A19.82,19.82,0,0,0,217,214a15.25,15.25,0,0,0,2.29-8,14.65,14.65,0,0,0-2.29-7.62,20,20,0,0,0-7.06-6.67,25.56,25.56,0,0,0-12-3.25H44.73a23.75,23.75,0,0,1-17.92-7.62,22.51,22.51,0,0,1-7.62-17.52,23.62,23.62,0,0,1,7.44-17.55,24.94,24.94,0,0,1,18.1-7.25h151q26.66.4,44,11.65t24.79,26.1A65.91,65.91,0,0,1,271.92,206a62.41,62.41,0,0,1-7.63,29.36,53.35,53.35,0,0,1-8.77,12.56,71.79,71.79,0,0,1,10.69,14.5,71.45,71.45,0,0,1,7.23,30.88q0,14.85-7.63,29.91T241,349.87q-17.14,11.63-43.83,12.4h-2.29a28.41,28.41,0,0,1-4.59.37H45.5A25.37,25.37,0,0,1,20,337.1Zm9.21,71q7.24-18.28,24.58-33t44-15.06H241.1a26,26,0,0,1,25.55,25.54,25.35,25.35,0,0,1-25.55,25.52H96.25a16.47,16.47,0,0,0-12.58,5.92A41.1,41.1,0,0,0,75.48,431a45.15,45.15,0,0,0-2.85,15.25V513q-2.31,22.86-25.17,24.77a26.65,26.65,0,0,1-18.48-7A22.88,22.88,0,0,1,21.17,513V446.62h.37A100.89,100.89,0,0,1,29.17,408.12ZM218,479.23q2.29-22.87,25.17-24.79a26.64,26.64,0,0,1,18.48,7.06,22.85,22.85,0,0,1,7.81,17.73V660.67a24.41,24.41,0,0,1-8,17.73,26,26,0,0,1-18.29,7H83.1q-33.54-1.12-50.7-15.79T7.63,636.48A97.67,97.67,0,0,1,0,598.92a101.69,101.69,0,0,1,7.44-38.3q7.44-18.5,24.77-33.16t44-15.06h96a26,26,0,0,1,25.54,25.54,25.35,25.35,0,0,1-25.54,25.52H74.71a16.46,16.46,0,0,0-12.58,5.91,37,37,0,0,0-7.82,13.73,51.24,51.24,0,0,0-2.46,15.44,52.32,52.32,0,0,0,2.46,15.81,36.8,36.8,0,0,0,7.82,13.73,17.82,17.82,0,0,0,12.58,6.29H208.13q9.9-.39,9.91-9.91Z"/></svg>