<svg xmlns="http://www.w3.org/2000/svg" xmlns:xlink="http://www.w3.org/1999/xlink" width="1125" viewBox="0 0 1125 375" height="375" version="1.0"><defs><linearGradient x1="1" gradientTransform="matrix(1124.99997 0 0 1124.99997 0 -750)" xmlns:xlink="http://www.w3.org/1999/xlink" y1=".5" x2="0" gradientUnits="userSpaceOnUse" y2=".5" xlink:type="simple" xlink:actuate="onLoad" id="a" xlink:show="other"><stop stop-color="#7EFFFB" offset="0"/><stop stop-color="#7EFFFB" offset=".016"/><stop stop-color="#7FFFFA" offset=".031"/><stop stop-color="#7FFFF9" offset=".047"/><stop stop-color="#7FFFF8" offset=".063"/><stop stop-color="#80FFF8" offset=".078"/><stop stop-color="#80FFF7" offset=".094"/><stop stop-color="#81FFF6" offset=".109"/><stop stop-color="#81FFF5" offset=".125"/><stop stop-color="#82FFF5" offset=".141"/><stop stop-color="#82FFF4" offset=".156"/><stop stop-color="#82FFF3" offset=".172"/><stop stop-color="#83FFF2" offset=".188"/><stop stop-color="#83FFF2" offset=".203"/><stop stop-color="#84FFF1" offset=".219"/><stop stop-color="#84FFF0" offset=".234"/><stop stop-color="#85FFEF" offset=".25"/><stop stop-color="#85FFEF" offset=".266"/><stop stop-color="#85FFEE" offset=".281"/><stop stop-color="#86FFED" offset=".297"/><stop stop-color="#86FFEC" offset=".313"/><stop stop-color="#87FFEC" offset=".328"/><stop stop-color="#87FFEB" offset=".344"/><stop stop-color="#87FFEA" offset=".359"/><stop stop-color="#88FFE9" offset=".375"/><stop stop-color="#88FFE9" offset=".391"/><stop stop-color="#89FFE8" offset=".406"/><stop stop-color="#89FFE7" offset=".422"/><stop stop-color="#8AFFE6" offset=".438"/><stop stop-color="#8AFFE6" offset=".453"/><stop stop-color="#8AFFE5" offset=".469"/><stop stop-color="#8BFFE4" offset=".484"/><stop stop-color="#8BFFE3" offset=".5"/><stop stop-color="#8CFFE3" offset=".516"/><stop stop-color="#8CFFE2" offset=".531"/><stop stop-color="#8DFFE1" offset=".547"/><stop stop-color="#8DFFE0" offset=".563"/><stop stop-color="#8DFFE0" offset=".578"/><stop stop-color="#8EFFDF" offset=".594"/><stop stop-color="#8EFFDE" offset=".609"/><stop stop-color="#8FFFDD" offset=".625"/><stop stop-color="#8FFFDD" offset=".641"/><stop stop-color="#8FFFDC" offset=".656"/><stop stop-color="#90FFDB" offset=".672"/><stop stop-color="#90FFDA" offset=".688"/><stop stop-color="#91FFDA" offset=".703"/><stop stop-color="#91FFD9" offset=".719"/><stop stop-color="#92FFD8" offset=".734"/><stop stop-color="#92FFD7" offset=".75"/><stop stop-color="#92FFD7" offset=".766"/><stop stop-color="#93FFD6" offset=".781"/><stop stop-color="#93FFD5" offset=".797"/><stop stop-color="#94FFD4" offset=".813"/><stop stop-color="#94FFD4" offset=".828"/><stop stop-color="#95FFD3" offset=".844"/><stop stop-color="#95FFD2" offset=".859"/><stop stop-color="#95FFD1" offset=".875"/><stop stop-color="#96FFD1" offset=".891"/><stop stop-color="#96FFD0" offset=".906"/><stop stop-color="#97FFCF" offset=".922"/><stop stop-color="#97FFCE" offset=".938"/><stop stop-color="#98FFCE" offset=".953"/><stop stop-color="#98FFCD" offset=".969"/><stop stop-color="#98FFCC" offset=".984"/><stop stop-color="#99FFCB" offset="1"/></linearGradient></defs><path fill="#FFF" d="M-112.5 -37.5H1237.5V412.5H-112.5z"/><path fill="#FFF" d="M-112.5 -37.5H1237.5V412.5H-112.5z"/><path fill="#FFF" d="M-112.5 -37.5H1237.5V412.5H-112.5z"/><path fill="url(#a)" d="M-112.5 -37.5H1237.5V412.5H-112.5z"/><g fill="#FFF"><g><g><path d="M -137.984375 -111.921875 C -137.984375 -122.078125 -136.8125 -132.082031 -134.46875 -141.9375 C -132.125 -151.800781 -128.65625 -161.222656 -124.0625 -170.203125 C -119.476562 -179.191406 -113.378906 -187.15625 -105.765625 -194.09375 C -98.148438 -201.03125 -89.066406 -204.789062 -78.515625 -205.375 L -16.109375 -205.375 C -4.390625 -204.195312 1.957031 -197.75 2.9375 -186.03125 C 2.9375 -180.5625 1.128906 -175.828125 -2.484375 -171.828125 C -6.097656 -167.828125 -10.640625 -165.828125 -16.109375 -165.828125 L -69.4375 -165.828125 C -75.488281 -165.429688 -80.515625 -163.132812 -84.515625 -158.9375 C -88.523438 -154.738281 -91.703125 -150.050781 -94.046875 -144.875 C -96.390625 -139.695312 -98.144531 -134.320312 -99.3125 -128.75 C -100.488281 -123.1875 -101.078125 -117.578125 -101.078125 -111.921875 C -101.078125 -106.253906 -100.488281 -100.632812 -99.3125 -95.0625 C -98.144531 -89.5 -96.390625 -84.128906 -94.046875 -78.953125 C -91.703125 -73.773438 -88.523438 -69.085938 -84.515625 -64.890625 C -80.515625 -60.691406 -75.488281 -58.398438 -69.4375 -58.015625 L -16.109375 -58.015625 C -4.390625 -57.035156 1.957031 -50.6875 2.9375 -38.96875 C 2.9375 -33.5 1.128906 -28.757812 -2.484375 -24.75 C -6.097656 -20.75 -10.640625 -18.75 -16.109375 -18.75 L -78.515625 -18.75 C -89.066406 -19.332031 -98.148438 -23.039062 -105.765625 -29.875 C -113.378906 -36.71875 -119.476562 -44.628906 -124.0625 -53.609375 C -128.65625 -62.597656 -132.125 -72.023438 -134.46875 -81.890625 C -136.8125 -91.753906 -137.984375 -101.765625 -137.984375 -111.921875 Z M -137.984375 -111.921875" transform="translate(441.998 302.737)"/></g></g></g><g fill="#FFF"><g><g><path d="M -20.796875 -20.515625 C -26.265625 -20.515625 -30.859375 -22.46875 -34.578125 -26.375 C -38.484375 -30.082031 -40.4375 -34.671875 -40.4375 -40.140625 L -40.4375 -158.5 C -40.625 -162.207031 -41.5 -165.28125 -43.0625 -167.71875 C -44.625 -170.164062 -46.378906 -171.972656 -48.328125 -173.140625 C -50.285156 -174.316406 -52.34375 -174.90625 -54.5 -174.90625 C -56.644531 -174.90625 -58.691406 -174.316406 -60.640625 -173.140625 C -62.597656 -171.972656 -64.359375 -170.164062 -65.921875 -167.71875 C -67.484375 -165.28125 -68.363281 -162.207031 -68.5625 -158.5 L -68.5625 -40.71875 C -68.5625 -35.25 -70.515625 -30.660156 -74.421875 -26.953125 C -78.128906 -23.046875 -82.71875 -21.09375 -88.1875 -21.09375 C -93.65625 -21.09375 -98.289062 -22.992188 -102.09375 -26.796875 C -105.90625 -30.609375 -107.8125 -35.25 -107.8125 -40.71875 L -107.8125 -156.734375 C -107.8125 -156.929688 -107.8125 -157.128906 -107.8125 -157.328125 C -108.007812 -161.035156 -108.835938 -164.109375 -110.296875 -166.546875 C -111.765625 -168.992188 -113.472656 -170.800781 -115.421875 -171.96875 C -117.378906 -173.144531 -119.429688 -173.734375 -121.578125 -173.734375 C -123.535156 -173.734375 -125.488281 -173.144531 -127.4375 -171.96875 C -129.394531 -170.800781 -131.101562 -168.992188 -132.5625 -166.546875 C -134.03125 -164.109375 -134.863281 -161.035156 -135.0625 -157.328125 L -135.0625 -39.546875 C -135.0625 -34.078125 -137.015625 -29.488281 -140.921875 -25.78125 C -144.429688 -21.875 -148.921875 -19.921875 -154.390625 -19.921875 C -159.671875 -19.921875 -164.164062 -21.820312 -167.875 -25.625 C -171.582031 -29.4375 -173.4375 -34.078125 -173.4375 -39.546875 L -173.4375 -155.5625 C -173.238281 -169.238281 -170.257812 -180.519531 -164.5 -189.40625 C -158.738281 -198.289062 -152.050781 -204.632812 -144.4375 -208.4375 C -136.820312 -212.25 -129.203125 -214.15625 -121.578125 -214.15625 C -113.960938 -214.15625 -106.445312 -212.203125 -99.03125 -208.296875 C -95.507812 -206.546875 -92.285156 -204.300781 -89.359375 -201.5625 C -85.835938 -204.882812 -82.125 -207.617188 -78.21875 -209.765625 C -70.40625 -213.472656 -62.5 -215.328125 -54.5 -215.328125 C -46.875 -215.328125 -39.203125 -213.375 -31.484375 -209.46875 C -23.773438 -205.5625 -16.941406 -199.210938 -10.984375 -190.421875 C -5.023438 -181.640625 -1.851562 -170.410156 -1.46875 -156.734375 L -1.46875 -154.984375 C -1.269531 -153.804688 -1.171875 -152.632812 -1.171875 -151.46875 L -1.171875 -40.140625 C -1.171875 -34.671875 -3.070312 -30.03125 -6.875 -26.21875 C -10.6875 -22.414062 -15.328125 -20.515625 -20.796875 -20.515625 Z M -20.796875 -20.515625" transform="translate(581.105 301.517)"/></g></g></g><g fill="#FFF"><g><g><path d="M -96.6875 -24.609375 C -106.0625 -28.316406 -114.503906 -34.613281 -122.015625 -43.5 C -129.535156 -52.394531 -133.394531 -63.675781 -133.59375 -77.34375 L -133.59375 -187.5 C -133.59375 -192.96875 -131.640625 -197.554688 -127.734375 -201.265625 C -124.023438 -205.171875 -119.4375 -207.125 -113.96875 -207.125 C -108.5 -207.125 -103.859375 -205.21875 -100.046875 -201.40625 C -96.242188 -197.601562 -94.34375 -192.96875 -94.34375 -187.5 L -94.34375 -76.171875 C -94.34375 -72.460938 -92.828125 -69.238281 -89.796875 -66.5 C -86.765625 -63.769531 -83.195312 -61.671875 -79.09375 -60.203125 C -75 -58.742188 -71.097656 -58.015625 -67.390625 -58.015625 L -16.109375 -58.015625 C -4.390625 -56.835938 1.957031 -50.390625 2.9375 -38.671875 C 2.9375 -33.203125 1.128906 -28.460938 -2.484375 -24.453125 C -6.097656 -20.453125 -10.640625 -18.453125 -16.109375 -18.453125 L -67.09375 -18.453125 L -67.09375 -18.75 C -77.25 -18.75 -87.113281 -20.703125 -96.6875 -24.609375 Z M -96.6875 -24.609375" transform="translate(711.78 299.515)"/></g></g></g><g fill="#FFF"><g><g><path d="M -159.078125 -181.640625 C -170.796875 -182.816406 -177.144531 -189.265625 -178.125 -200.984375 C -178.125 -206.453125 -176.316406 -211.1875 -172.703125 -215.1875 C -169.085938 -219.1875 -164.546875 -221.1875 -159.078125 -221.1875 L -19.625 -221.1875 C -14.15625 -221 -9.613281 -218.953125 -6 -215.046875 C -2.394531 -211.140625 -0.59375 -206.453125 -0.59375 -200.984375 L -0.59375 -77.9375 C -1.175781 -60.75 -5.226562 -47.757812 -12.75 -38.96875 C -20.269531 -30.175781 -28.765625 -23.828125 -38.234375 -19.921875 C -47.703125 -16.015625 -57.320312 -14.0625 -67.09375 -14.0625 C -77.25 -14.0625 -87.0625 -15.960938 -96.53125 -19.765625 C -106.007812 -23.578125 -114.503906 -29.925781 -122.015625 -38.8125 C -129.535156 -47.707031 -133.394531 -58.988281 -133.59375 -72.65625 L -133.59375 -146.484375 C -133.59375 -151.953125 -131.640625 -156.539062 -127.734375 -160.25 C -124.023438 -164.15625 -119.4375 -166.109375 -113.96875 -166.109375 C -108.5 -166.109375 -103.859375 -164.203125 -100.046875 -160.390625 C -96.242188 -156.585938 -94.34375 -151.953125 -94.34375 -146.484375 L -94.34375 -71.484375 C -94.34375 -67.773438 -92.828125 -64.550781 -89.796875 -61.8125 C -86.765625 -59.082031 -83.25 -57.082031 -79.25 -55.8125 C -75.25 -54.539062 -71.296875 -53.90625 -67.390625 -53.90625 C -63.285156 -53.90625 -59.226562 -54.539062 -55.21875 -55.8125 C -51.21875 -57.082031 -47.703125 -59.082031 -44.671875 -61.8125 C -41.648438 -64.550781 -40.039062 -67.773438 -39.84375 -71.484375 L -39.84375 -174.03125 C -40.039062 -179.101562 -42.582031 -181.640625 -47.46875 -181.640625 Z M -159.078125 -181.640625" transform="translate(817.998 311.386)"/></g></g></g></svg>
