<?xml version="1.0" encoding="UTF-8"?>
<svg xmlns="http://www.w3.org/2000/svg" xmlns:xlink="http://www.w3.org/1999/xlink" viewBox="100 100 1000 1000" version="1.2" baseProfile="tiny-ps">
<title>n3rd3x3</title>
<path d="M601.13,287.76a168.42,168.42,0,0,1,39.08,4.58A163.25,163.25,0,0,1,677,305.86a108.45,108.45,0,0,1,31.06,23.84,55.68,55.68,0,0,1,14.69,35.43v81.21q-2.31,22.86-25.15,24.77a26.73,26.73,0,0,1-18.5-7,22.88,22.88,0,0,1-7.81-17.73V377a28.78,28.78,0,0,0-9-19.65A65.24,65.24,0,0,0,644,345a100.42,100.42,0,0,0-21-6.86,106.05,106.05,0,0,0-43.84,0,100.35,100.35,0,0,0-21,6.86,65.38,65.38,0,0,0-18.32,12.37A28.7,28.7,0,0,0,531,377v69.37q-1.92,22.86-24.8,24.77a26.67,26.67,0,0,1-18.47-7,22.88,22.88,0,0,1-7.82-17.73V365.13A56.11,56.11,0,0,1,494.4,329.7a106.07,106.07,0,0,1,30.88-23.84,163.5,163.5,0,0,1,36.79-13.52A168.32,168.32,0,0,1,601.13,287.76ZM481.21,624.86a26,26,0,0,1,25.54-25.55h154a24.32,24.32,0,0,0,12-3.41,21.38,21.38,0,0,0,7-6.88,15.12,15.12,0,0,0,0-16,21.22,21.22,0,0,0-7-6.85,24.22,24.22,0,0,0-12-3.44H507.5A26,26,0,0,1,482,537.19a25.4,25.4,0,0,1,25.54-25.54H659.21a25.8,25.8,0,0,0,12-3.25,19.91,19.91,0,0,0,7.06-6.67,15.28,15.28,0,0,0,2.29-8,14.65,14.65,0,0,0-2.29-7.62,19.91,19.91,0,0,0-7.06-6.67,25.45,25.45,0,0,0-12-3.25H506a23.74,23.74,0,0,1-17.92-7.63A22.48,22.48,0,0,1,480.44,451a23.6,23.6,0,0,1,7.44-17.54,25,25,0,0,1,18.1-7.25h151q26.65.4,44,11.65T725.73,464a65.88,65.88,0,0,1,7.44,29.73,62.41,62.41,0,0,1-7.63,29.36,53.35,53.35,0,0,1-8.77,12.56A61.87,61.87,0,0,1,734.69,581q0,14.87-7.63,29.92t-24.77,26.69Q685.15,649.26,658.46,650h-2.29a28.43,28.43,0,0,1-4.59.38H506.75a25.37,25.37,0,0,1-25.54-25.54Zm9.21,71q7.24-18.28,24.58-33t44-15.06H702.36A26.05,26.05,0,0,1,727.9,673.4a25.37,25.37,0,0,1-25.54,25.52H557.5q-7.23,0-12.58,5.92a41.06,41.06,0,0,0-8.19,13.91A45.24,45.24,0,0,0,533.88,734v66.71q-2.31,22.86-25.17,24.77a26.7,26.7,0,0,1-18.48-7,22.88,22.88,0,0,1-7.81-17.73V734.38h.37A100.89,100.89,0,0,1,490.42,695.88ZM679.29,767q2.3-22.87,25.17-24.79a26.64,26.64,0,0,1,18.48,7.06A22.85,22.85,0,0,1,730.75,767V948.42a24.37,24.37,0,0,1-8,17.73,26,26,0,0,1-18.29,7.05H544.36q-33.56-1.12-50.71-15.8t-24.77-33.16a97.72,97.72,0,0,1-7.63-37.57,101.67,101.67,0,0,1,7.44-38.29q7.44-18.5,24.77-33.16t44-15.07h96a26,26,0,0,1,25.54,25.55,25.35,25.35,0,0,1-25.54,25.52H536a16.46,16.46,0,0,0-12.58,5.91,36.87,36.87,0,0,0-7.82,13.73,51.22,51.22,0,0,0-2.45,15.44,52.36,52.36,0,0,0,2.45,15.81,36.8,36.8,0,0,0,7.82,13.73A17.85,17.85,0,0,0,536,922.13H669.38q9.92-.39,9.91-9.91Z"></path></svg>